<svg cache-id="75de0f0c30114ea1b074a855de176788" id="eSnlt3Q0iVz1" xmlns="http://www.w3.org/2000/svg" xmlns:xlink="http://www.w3.org/1999/xlink" viewBox="0 0 1440 1024" shape-rendering="geometricPrecision" text-rendering="geometricPrecision"><defs><linearGradient id="eSnlt3Q0iVz6-fill" x1="558.17" y1="-32.81" x2="-566.78" y2="1.29" spreadMethod="pad" gradientUnits="userSpaceOnUse" gradientTransform="translate(0 0)"><stop id="eSnlt3Q0iVz6-fill-0" offset="0%" stop-color="#6b6ef9"/><stop id="eSnlt3Q0iVz6-fill-1" offset="100%" stop-color="#7d9cf5"/></linearGradient><linearGradient id="eSnlt3Q0iVz8-fill" x1="425.35" y1="-25.008" x2="-431.92" y2="0.978" spreadMethod="pad" gradientUnits="userSpaceOnUse" gradientTransform="translate(0 0)"><stop id="eSnlt3Q0iVz8-fill-0" offset="0%" stop-color="#68d6d2"/><stop id="eSnlt3Q0iVz8-fill-1" offset="100%" stop-color="#49cbd3"/></linearGradient><linearGradient id="eSnlt3Q0iVz10-fill" x1="0" y1="0.5" x2="1" y2="0.5" spreadMethod="pad" gradientUnits="objectBoundingBox" gradientTransform="translate(0 0)"><stop id="eSnlt3Q0iVz10-fill-0" offset="0%" stop-color="#7d9cf5"/><stop id="eSnlt3Q0iVz10-fill-1" offset="100%" stop-color="#fff"/></linearGradient></defs><g clip-path="url(#eSnlt3Q0iVz14)"><g><rect width="1440" height="1024" rx="0" ry="0" fill="#fff"/><g transform="matrix(1.406951 0 0 1.495938-585.944289-539.75411)" opacity="0.51"><ellipse rx="566.581" ry="212.132" transform="matrix(.995675-.092905 0.092905 0.995675 1439.840319 1088.349522)" fill="url(#eSnlt3Q0iVz6-fill)"/></g><g transform="matrix(1.474397 0 0 1.519936-749.70379-444.855706)" opacity="0.51"><ellipse rx="431.767" ry="161.657" transform="matrix(.807305 0.596494-.552773 0.748133 1620.608881 811.098359)" fill="url(#eSnlt3Q0iVz8-fill)"/></g><g transform="matrix(.984983 0 0 1.330589 0.005251-31.993253)" opacity="0.31"><ellipse rx="532.796" ry="199.483" transform="matrix(.81269-.582696 0.582696 0.81269 0.349687 96.776538)" fill="url(#eSnlt3Q0iVz10-fill)"/></g><rect width="1440" height="194" rx="0" ry="0" fill="none"/><g style="mix-blend-mode:lighten"><rect width="1440" height="194" rx="0" ry="0" fill="#5f8afa"/></g></g><clipPath id="eSnlt3Q0iVz14"><rect width="1440" height="1024" rx="0" ry="0" fill="#fff"/></clipPath></g><g transform="translate(.000001 0.000001)"><ellipse rx="66.561752" ry="32.405063" transform="matrix(.679965-1.188674 1.371027 0.784277 18.398775 267.995337)" opacity="0.51" fill="#eac14e" stroke-width="0"/></g></svg>